<svg id="visual" viewBox="0 0 4096 600" width="4096" height="600" xmlns="http://www.w3.org/2000/svg" xmlns:xlink="http://www.w3.org/1999/xlink" version="1.1"><rect x="0" y="0" width="4096" height="600" fill="#000"></rect><path d="M0 312L48.8 303.2C97.7 294.3 195.3 276.7 292.8 290.8C390.3 305 487.7 351 585.2 347C682.7 343 780.3 289 877.8 261.8C975.3 234.7 1072.7 234.3 1170.2 229.3C1267.7 224.3 1365.3 214.7 1462.8 213.5C1560.3 212.3 1657.7 219.7 1755.2 249C1852.7 278.3 1950.3 329.7 2048 352.8C2145.7 376 2243.3 371 2340.8 365C2438.3 359 2535.7 352 2633.2 353.5C2730.7 355 2828.3 365 2925.8 375.3C3023.3 385.7 3120.7 396.3 3218.2 376C3315.7 355.7 3413.3 304.3 3510.8 303.7C3608.3 303 3705.7 353 3803.2 381.3C3900.7 409.7 3998.3 416.3 4047.2 419.7L4096 423L4096 0L4047.2 0C3998.3 0 3900.7 0 3803.2 0C3705.7 0 3608.3 0 3510.8 0C3413.3 0 3315.7 0 3218.2 0C3120.7 0 3023.3 0 2925.8 0C2828.3 0 2730.7 0 2633.2 0C2535.7 0 2438.3 0 2340.8 0C2243.3 0 2145.7 0 2048 0C1950.3 0 1852.7 0 1755.2 0C1657.7 0 1560.3 0 1462.8 0C1365.3 0 1267.7 0 1170.2 0C1072.7 0 975.3 0 877.8 0C780.3 0 682.7 0 585.2 0C487.7 0 390.3 0 292.8 0C195.3 0 97.7 0 48.8 0L0 0Z" fill="#23d5ab"></path><path d="M0 289L48.8 304.2C97.7 319.3 195.3 349.7 292.8 341.2C390.3 332.7 487.7 285.3 585.2 264.2C682.7 243 780.3 248 877.8 267C975.3 286 1072.7 319 1170.2 307.2C1267.7 295.3 1365.3 238.7 1462.8 222.7C1560.3 206.7 1657.7 231.3 1755.2 217.7C1852.7 204 1950.3 152 2048 126.7C2145.7 101.3 2243.3 102.7 2340.8 112.2C2438.3 121.7 2535.7 139.3 2633.2 182.2C2730.7 225 2828.3 293 2925.8 282.7C3023.3 272.3 3120.7 183.7 3218.2 136.3C3315.7 89 3413.3 83 3510.8 129.7C3608.3 176.3 3705.7 275.7 3803.2 299.2C3900.7 322.7 3998.3 270.3 4047.2 244.2L4096 218L4096 0L4047.2 0C3998.3 0 3900.7 0 3803.2 0C3705.7 0 3608.3 0 3510.8 0C3413.3 0 3315.7 0 3218.2 0C3120.7 0 3023.3 0 2925.8 0C2828.3 0 2730.7 0 2633.2 0C2535.7 0 2438.3 0 2340.8 0C2243.3 0 2145.7 0 2048 0C1950.3 0 1852.7 0 1755.2 0C1657.7 0 1560.3 0 1462.8 0C1365.3 0 1267.7 0 1170.2 0C1072.7 0 975.3 0 877.8 0C780.3 0 682.7 0 585.2 0C487.7 0 390.3 0 292.8 0C195.3 0 97.7 0 48.8 0L0 0Z" fill="#00c8c8"></path><path d="M0 99L48.8 93.3C97.7 87.7 195.3 76.3 292.8 75.2C390.3 74 487.7 83 585.2 96.8C682.7 110.7 780.3 129.3 877.8 125C975.3 120.7 1072.7 93.3 1170.2 95.5C1267.7 97.7 1365.3 129.3 1462.8 150.5C1560.3 171.7 1657.7 182.3 1755.2 180.3C1852.7 178.3 1950.3 163.7 2048 172.3C2145.7 181 2243.3 213 2340.8 206.3C2438.3 199.7 2535.7 154.3 2633.2 125C2730.7 95.7 2828.3 82.3 2925.8 80.8C3023.3 79.3 3120.7 89.7 3218.2 119.2C3315.7 148.7 3413.3 197.3 3510.8 215.2C3608.3 233 3705.7 220 3803.2 206.8C3900.7 193.7 3998.3 180.3 4047.2 173.7L4096 167L4096 0L4047.2 0C3998.3 0 3900.7 0 3803.2 0C3705.7 0 3608.3 0 3510.8 0C3413.3 0 3315.7 0 3218.2 0C3120.7 0 3023.3 0 2925.8 0C2828.3 0 2730.7 0 2633.2 0C2535.7 0 2438.3 0 2340.8 0C2243.3 0 2145.7 0 2048 0C1950.3 0 1852.7 0 1755.2 0C1657.7 0 1560.3 0 1462.8 0C1365.3 0 1267.7 0 1170.2 0C1072.7 0 975.3 0 877.8 0C780.3 0 682.7 0 585.2 0C487.7 0 390.3 0 292.8 0C195.3 0 97.7 0 48.8 0L0 0Z" fill="#00b8d3"></path><path d="M0 162L48.8 136.5C97.7 111 195.3 60 292.8 36.2C390.3 12.3 487.7 15.7 585.2 19C682.7 22.3 780.3 25.7 877.8 33.5C975.3 41.3 1072.7 53.7 1170.2 54.3C1267.7 55 1365.3 44 1462.8 46C1560.3 48 1657.7 63 1755.2 62.2C1852.7 61.3 1950.3 44.7 2048 44.2C2145.7 43.7 2243.3 59.3 2340.8 82.8C2438.3 106.3 2535.7 137.7 2633.2 153.7C2730.7 169.7 2828.3 170.3 2925.8 142.8C3023.3 115.3 3120.7 59.7 3218.2 54.8C3315.7 50 3413.3 96 3510.8 123.2C3608.3 150.3 3705.7 158.7 3803.2 139.7C3900.7 120.7 3998.3 74.3 4047.2 51.2L4096 28L4096 0L4047.2 0C3998.3 0 3900.7 0 3803.2 0C3705.7 0 3608.3 0 3510.8 0C3413.3 0 3315.7 0 3218.2 0C3120.7 0 3023.3 0 2925.8 0C2828.3 0 2730.7 0 2633.2 0C2535.7 0 2438.3 0 2340.8 0C2243.3 0 2145.7 0 2048 0C1950.3 0 1852.7 0 1755.2 0C1657.7 0 1560.3 0 1462.8 0C1365.3 0 1267.7 0 1170.2 0C1072.7 0 975.3 0 877.8 0C780.3 0 682.7 0 585.2 0C487.7 0 390.3 0 292.8 0C195.3 0 97.7 0 48.8 0L0 0Z" fill="#23a6d5"></path></svg>