<svg id="visual" viewBox="0 0 4096 600" width="4096" height="600" xmlns="http://www.w3.org/2000/svg" xmlns:xlink="http://www.w3.org/1999/xlink" version="1.1"><rect x="0" y="0" width="4096" height="600" fill="#000"></rect><path d="M0 441L48.8 401C97.7 361 195.3 281 292.8 230C390.3 179 487.7 157 585.2 167C682.7 177 780.3 219 877.8 232.2C975.3 245.3 1072.7 229.7 1170.2 233C1267.7 236.3 1365.3 258.7 1462.8 246.5C1560.3 234.3 1657.7 187.7 1755.2 213.5C1852.7 239.3 1950.3 337.7 2048 372.3C2145.7 407 2243.3 378 2340.8 379C2438.3 380 2535.7 411 2633.2 389.2C2730.7 367.3 2828.3 292.7 2925.8 265.2C3023.3 237.7 3120.7 257.3 3218.2 260.7C3315.7 264 3413.3 251 3510.8 271.2C3608.3 291.3 3705.7 344.7 3803.2 359C3900.7 373.3 3998.3 348.7 4047.2 336.3L4096 324L4096 0L4047.2 0C3998.3 0 3900.7 0 3803.2 0C3705.7 0 3608.3 0 3510.8 0C3413.3 0 3315.7 0 3218.2 0C3120.7 0 3023.3 0 2925.8 0C2828.3 0 2730.7 0 2633.2 0C2535.7 0 2438.3 0 2340.8 0C2243.3 0 2145.7 0 2048 0C1950.3 0 1852.7 0 1755.2 0C1657.7 0 1560.3 0 1462.8 0C1365.3 0 1267.7 0 1170.2 0C1072.7 0 975.3 0 877.8 0C780.3 0 682.7 0 585.2 0C487.7 0 390.3 0 292.8 0C195.3 0 97.7 0 48.8 0L0 0Z" fill="#ff0000"></path><path d="M0 106L48.8 127C97.7 148 195.3 190 292.8 216.2C390.3 242.3 487.7 252.7 585.2 248.2C682.7 243.7 780.3 224.3 877.8 226.8C975.3 229.3 1072.7 253.7 1170.2 247.5C1267.7 241.3 1365.3 204.7 1462.8 214.7C1560.3 224.7 1657.7 281.3 1755.2 311.5C1852.7 341.7 1950.3 345.3 2048 314.7C2145.7 284 2243.3 219 2340.8 185C2438.3 151 2535.7 148 2633.2 181C2730.7 214 2828.3 283 2925.8 296.5C3023.3 310 3120.7 268 3218.2 259.5C3315.7 251 3413.3 276 3510.8 297.2C3608.3 318.3 3705.7 335.7 3803.2 342.8C3900.7 350 3998.3 347 4047.2 345.5L4096 344L4096 0L4047.2 0C3998.3 0 3900.7 0 3803.2 0C3705.7 0 3608.3 0 3510.8 0C3413.3 0 3315.7 0 3218.2 0C3120.7 0 3023.3 0 2925.8 0C2828.3 0 2730.7 0 2633.2 0C2535.7 0 2438.3 0 2340.8 0C2243.3 0 2145.7 0 2048 0C1950.3 0 1852.7 0 1755.2 0C1657.7 0 1560.3 0 1462.8 0C1365.3 0 1267.7 0 1170.2 0C1072.7 0 975.3 0 877.8 0C780.3 0 682.7 0 585.2 0C487.7 0 390.3 0 292.8 0C195.3 0 97.7 0 48.8 0L0 0Z" fill="#ff005f"></path><path d="M0 184L48.8 191.2C97.7 198.3 195.3 212.7 292.8 198C390.3 183.3 487.7 139.7 585.2 124.7C682.7 109.7 780.3 123.3 877.8 132.3C975.3 141.3 1072.7 145.7 1170.2 164.3C1267.7 183 1365.3 216 1462.8 207.2C1560.3 198.3 1657.7 147.7 1755.2 135.2C1852.7 122.7 1950.3 148.3 2048 148.3C2145.7 148.3 2243.3 122.7 2340.8 109.8C2438.3 97 2535.7 97 2633.2 99.8C2730.7 102.7 2828.3 108.3 2925.8 99.3C3023.3 90.3 3120.7 66.7 3218.2 73.2C3315.7 79.7 3413.3 116.3 3510.8 117.5C3608.3 118.7 3705.7 84.3 3803.2 106.2C3900.7 128 3998.3 206 4047.2 245L4096 284L4096 0L4047.2 0C3998.3 0 3900.7 0 3803.2 0C3705.7 0 3608.3 0 3510.8 0C3413.3 0 3315.7 0 3218.2 0C3120.7 0 3023.3 0 2925.8 0C2828.3 0 2730.7 0 2633.2 0C2535.7 0 2438.3 0 2340.8 0C2243.3 0 2145.7 0 2048 0C1950.3 0 1852.7 0 1755.2 0C1657.7 0 1560.3 0 1462.8 0C1365.3 0 1267.7 0 1170.2 0C1072.7 0 975.3 0 877.8 0C780.3 0 682.7 0 585.2 0C487.7 0 390.3 0 292.8 0C195.3 0 97.7 0 48.8 0L0 0Z" fill="#ff00a5"></path><path d="M0 165L48.8 161.3C97.7 157.7 195.3 150.3 292.8 151.5C390.3 152.7 487.7 162.3 585.2 159.8C682.7 157.3 780.3 142.7 877.8 122.7C975.3 102.7 1072.7 77.3 1170.2 65.7C1267.7 54 1365.3 56 1462.8 49.5C1560.3 43 1657.7 28 1755.2 34.5C1852.7 41 1950.3 69 2048 78.3C2145.7 87.7 2243.3 78.3 2340.8 71.3C2438.3 64.3 2535.7 59.7 2633.2 62.8C2730.7 66 2828.3 77 2925.8 75.8C3023.3 74.7 3120.7 61.3 3218.2 50.2C3315.7 39 3413.3 30 3510.8 32.3C3608.3 34.7 3705.7 48.3 3803.2 58.7C3900.7 69 3998.3 76 4047.2 79.5L4096 83L4096 0L4047.2 0C3998.3 0 3900.7 0 3803.2 0C3705.7 0 3608.3 0 3510.8 0C3413.3 0 3315.7 0 3218.2 0C3120.7 0 3023.3 0 2925.8 0C2828.3 0 2730.7 0 2633.2 0C2535.7 0 2438.3 0 2340.8 0C2243.3 0 2145.7 0 2048 0C1950.3 0 1852.7 0 1755.2 0C1657.7 0 1560.3 0 1462.8 0C1365.3 0 1267.7 0 1170.2 0C1072.7 0 975.3 0 877.8 0C780.3 0 682.7 0 585.2 0C487.7 0 390.3 0 292.8 0C195.3 0 97.7 0 48.8 0L0 0Z" fill="#e100ff"></path></svg>