<svg id="visual" viewBox="0 0 4096 600" width="4096" height="600" xmlns="http://www.w3.org/2000/svg" xmlns:xlink="http://www.w3.org/1999/xlink" version="1.1"><rect x="0" y="0" width="4096" height="600" fill="#000"></rect><path d="M0 131L48.8 178.2C97.7 225.3 195.3 319.7 292.8 357.8C390.3 396 487.7 378 585.2 358.8C682.7 339.7 780.3 319.3 877.8 312.2C975.3 305 1072.7 311 1170.2 294.2C1267.7 277.3 1365.3 237.7 1462.8 212.5C1560.3 187.3 1657.7 176.7 1755.2 223.3C1852.7 270 1950.3 374 2048 414.3C2145.7 454.7 2243.3 431.3 2340.8 421C2438.3 410.7 2535.7 413.3 2633.2 417.7C2730.7 422 2828.3 428 2925.8 428.7C3023.3 429.3 3120.7 424.7 3218.2 389.3C3315.7 354 3413.3 288 3510.8 287.3C3608.3 286.7 3705.7 351.3 3803.2 380.5C3900.7 409.7 3998.3 403.3 4047.2 400.2L4096 397L4096 0L4047.2 0C3998.3 0 3900.7 0 3803.2 0C3705.7 0 3608.3 0 3510.8 0C3413.3 0 3315.7 0 3218.2 0C3120.7 0 3023.3 0 2925.8 0C2828.3 0 2730.7 0 2633.2 0C2535.7 0 2438.3 0 2340.8 0C2243.3 0 2145.7 0 2048 0C1950.3 0 1852.7 0 1755.2 0C1657.7 0 1560.3 0 1462.8 0C1365.3 0 1267.7 0 1170.2 0C1072.7 0 975.3 0 877.8 0C780.3 0 682.7 0 585.2 0C487.7 0 390.3 0 292.8 0C195.3 0 97.7 0 48.8 0L0 0Z" fill="#e100ff"></path><path d="M0 369L48.8 336.2C97.7 303.3 195.3 237.7 292.8 212.2C390.3 186.7 487.7 201.3 585.2 207.5C682.7 213.7 780.3 211.3 877.8 211C975.3 210.7 1072.7 212.3 1170.2 202.7C1267.7 193 1365.3 172 1462.8 170C1560.3 168 1657.7 185 1755.2 205.8C1852.7 226.7 1950.3 251.3 2048 272.3C2145.7 293.3 2243.3 310.7 2340.8 295.8C2438.3 281 2535.7 234 2633.2 221.7C2730.7 209.3 2828.3 231.7 2925.8 216.7C3023.3 201.7 3120.7 149.3 3218.2 160.5C3315.7 171.7 3413.3 246.3 3510.8 289.2C3608.3 332 3705.7 343 3803.2 351.5C3900.7 360 3998.3 366 4047.2 369L4096 372L4096 0L4047.2 0C3998.3 0 3900.7 0 3803.2 0C3705.7 0 3608.3 0 3510.8 0C3413.3 0 3315.7 0 3218.2 0C3120.7 0 3023.3 0 2925.8 0C2828.3 0 2730.7 0 2633.2 0C2535.7 0 2438.3 0 2340.8 0C2243.3 0 2145.7 0 2048 0C1950.3 0 1852.7 0 1755.2 0C1657.7 0 1560.3 0 1462.8 0C1365.3 0 1267.7 0 1170.2 0C1072.7 0 975.3 0 877.8 0C780.3 0 682.7 0 585.2 0C487.7 0 390.3 0 292.8 0C195.3 0 97.7 0 48.8 0L0 0Z" fill="#ff00a5"></path><path d="M0 158L48.8 171C97.7 184 195.3 210 292.8 191C390.3 172 487.7 108 585.2 89C682.7 70 780.3 96 877.8 113.8C975.3 131.7 1072.7 141.3 1170.2 147.5C1267.7 153.7 1365.3 156.3 1462.8 157C1560.3 157.7 1657.7 156.3 1755.2 159.5C1852.7 162.7 1950.3 170.3 2048 154.3C2145.7 138.3 2243.3 98.7 2340.8 105.5C2438.3 112.3 2535.7 165.7 2633.2 194.7C2730.7 223.7 2828.3 228.3 2925.8 214.7C3023.3 201 3120.7 169 3218.2 161.2C3315.7 153.3 3413.3 169.7 3510.8 155.3C3608.3 141 3705.7 96 3803.2 83.7C3900.7 71.3 3998.3 91.7 4047.2 101.8L4096 112L4096 0L4047.2 0C3998.3 0 3900.7 0 3803.2 0C3705.7 0 3608.3 0 3510.8 0C3413.3 0 3315.7 0 3218.2 0C3120.7 0 3023.3 0 2925.8 0C2828.3 0 2730.7 0 2633.2 0C2535.7 0 2438.3 0 2340.8 0C2243.3 0 2145.7 0 2048 0C1950.3 0 1852.7 0 1755.2 0C1657.7 0 1560.3 0 1462.8 0C1365.3 0 1267.7 0 1170.2 0C1072.7 0 975.3 0 877.8 0C780.3 0 682.7 0 585.2 0C487.7 0 390.3 0 292.8 0C195.3 0 97.7 0 48.8 0L0 0Z" fill="#ff005f"></path><path d="M0 68L48.8 74C97.7 80 195.3 92 292.8 107.2C390.3 122.3 487.7 140.7 585.2 145.7C682.7 150.7 780.3 142.3 877.8 125.2C975.3 108 1072.7 82 1170.2 89.8C1267.7 97.7 1365.3 139.3 1462.8 138.2C1560.3 137 1657.7 93 1755.2 82C1852.7 71 1950.3 93 2048 92C2145.7 91 2243.3 67 2340.8 72.8C2438.3 78.7 2535.7 114.3 2633.2 134.8C2730.7 155.3 2828.3 160.7 2925.8 158.7C3023.3 156.7 3120.7 147.3 3218.2 120.5C3315.7 93.7 3413.3 49.3 3510.8 33.7C3608.3 18 3705.7 31 3803.2 53.2C3900.7 75.3 3998.3 106.7 4047.2 122.3L4096 138L4096 0L4047.2 0C3998.3 0 3900.7 0 3803.2 0C3705.7 0 3608.3 0 3510.8 0C3413.3 0 3315.7 0 3218.2 0C3120.7 0 3023.3 0 2925.8 0C2828.3 0 2730.7 0 2633.2 0C2535.7 0 2438.3 0 2340.8 0C2243.3 0 2145.7 0 2048 0C1950.3 0 1852.7 0 1755.2 0C1657.7 0 1560.3 0 1462.8 0C1365.3 0 1267.7 0 1170.2 0C1072.7 0 975.3 0 877.8 0C780.3 0 682.7 0 585.2 0C487.7 0 390.3 0 292.8 0C195.3 0 97.7 0 48.8 0L0 0Z" fill="#ff0000"></path></svg>