<svg id="visual" viewBox="0 0 4096 600" width="4096" height="600" xmlns="http://www.w3.org/2000/svg" xmlns:xlink="http://www.w3.org/1999/xlink" version="1.1"><rect x="0" y="0" width="4096" height="600" fill="#000"></rect><path d="M0 250L48.8 266.5C97.7 283 195.3 316 292.8 339.5C390.3 363 487.7 377 585.2 347.8C682.7 318.7 780.3 246.3 877.8 219.5C975.3 192.7 1072.7 211.3 1170.2 240.7C1267.7 270 1365.3 310 1462.8 334.7C1560.3 359.3 1657.7 368.7 1755.2 364.7C1852.7 360.7 1950.3 343.3 2048 350.3C2145.7 357.3 2243.3 388.7 2340.8 360.8C2438.3 333 2535.7 246 2633.2 199.3C2730.7 152.7 2828.3 146.3 2925.8 159.5C3023.3 172.7 3120.7 205.3 3218.2 260C3315.7 314.7 3413.3 391.3 3510.8 394.8C3608.3 398.3 3705.7 328.7 3803.2 279.5C3900.7 230.3 3998.3 201.7 4047.2 187.3L4096 173L4096 0L4047.2 0C3998.3 0 3900.7 0 3803.2 0C3705.7 0 3608.3 0 3510.8 0C3413.3 0 3315.7 0 3218.2 0C3120.7 0 3023.3 0 2925.8 0C2828.3 0 2730.7 0 2633.2 0C2535.7 0 2438.3 0 2340.8 0C2243.3 0 2145.7 0 2048 0C1950.3 0 1852.7 0 1755.2 0C1657.7 0 1560.3 0 1462.8 0C1365.3 0 1267.7 0 1170.2 0C1072.7 0 975.3 0 877.8 0C780.3 0 682.7 0 585.2 0C487.7 0 390.3 0 292.8 0C195.3 0 97.7 0 48.8 0L0 0Z" fill="#ff0021"></path><path d="M0 317L48.8 319.7C97.7 322.3 195.3 327.7 292.8 330.7C390.3 333.7 487.7 334.3 585.2 339.8C682.7 345.3 780.3 355.7 877.8 351C975.3 346.3 1072.7 326.7 1170.2 279.7C1267.7 232.7 1365.3 158.3 1462.8 160.2C1560.3 162 1657.7 240 1755.2 272.7C1852.7 305.3 1950.3 292.7 2048 295.5C2145.7 298.3 2243.3 316.7 2340.8 283.3C2438.3 250 2535.7 165 2633.2 156.3C2730.7 147.7 2828.3 215.3 2925.8 218.8C3023.3 222.3 3120.7 161.7 3218.2 150.3C3315.7 139 3413.3 177 3510.8 181.3C3608.3 185.7 3705.7 156.3 3803.2 144.7C3900.7 133 3998.3 139 4047.2 142L4096 145L4096 0L4047.2 0C3998.3 0 3900.7 0 3803.2 0C3705.7 0 3608.3 0 3510.8 0C3413.3 0 3315.7 0 3218.2 0C3120.7 0 3023.3 0 2925.8 0C2828.3 0 2730.7 0 2633.2 0C2535.7 0 2438.3 0 2340.8 0C2243.3 0 2145.7 0 2048 0C1950.3 0 1852.7 0 1755.2 0C1657.7 0 1560.3 0 1462.8 0C1365.3 0 1267.7 0 1170.2 0C1072.7 0 975.3 0 877.8 0C780.3 0 682.7 0 585.2 0C487.7 0 390.3 0 292.8 0C195.3 0 97.7 0 48.8 0L0 0Z" fill="#ff0062"></path><path d="M0 213L48.8 222.5C97.7 232 195.3 251 292.8 255.2C390.3 259.3 487.7 248.7 585.2 221.7C682.7 194.7 780.3 151.3 877.8 143.5C975.3 135.7 1072.7 163.3 1170.2 189.3C1267.7 215.3 1365.3 239.7 1462.8 236.3C1560.3 233 1657.7 202 1755.2 168.8C1852.7 135.7 1950.3 100.3 2048 110C2145.7 119.7 2243.3 174.3 2340.8 183C2438.3 191.7 2535.7 154.3 2633.2 138.2C2730.7 122 2828.3 127 2925.8 153.2C3023.3 179.3 3120.7 226.7 3218.2 222.7C3315.7 218.7 3413.3 163.3 3510.8 160.7C3608.3 158 3705.7 208 3803.2 233.3C3900.7 258.7 3998.3 259.3 4047.2 259.7L4096 260L4096 0L4047.2 0C3998.3 0 3900.7 0 3803.2 0C3705.7 0 3608.3 0 3510.8 0C3413.3 0 3315.7 0 3218.2 0C3120.7 0 3023.3 0 2925.8 0C2828.3 0 2730.7 0 2633.2 0C2535.7 0 2438.3 0 2340.8 0C2243.3 0 2145.7 0 2048 0C1950.3 0 1852.7 0 1755.2 0C1657.7 0 1560.3 0 1462.8 0C1365.3 0 1267.7 0 1170.2 0C1072.7 0 975.3 0 877.8 0C780.3 0 682.7 0 585.2 0C487.7 0 390.3 0 292.8 0C195.3 0 97.7 0 48.8 0L0 0Z" fill="#ff009c"></path><path d="M0 180L48.8 176.3C97.7 172.7 195.3 165.3 292.8 144.3C390.3 123.3 487.7 88.7 585.2 65.3C682.7 42 780.3 30 877.8 42.8C975.3 55.7 1072.7 93.3 1170.2 109.8C1267.7 126.3 1365.3 121.7 1462.8 109.7C1560.3 97.7 1657.7 78.3 1755.2 76.7C1852.7 75 1950.3 91 2048 89.7C2145.7 88.3 2243.3 69.7 2340.8 59.7C2438.3 49.7 2535.7 48.3 2633.2 49.5C2730.7 50.7 2828.3 54.3 2925.8 77.5C3023.3 100.7 3120.7 143.3 3218.2 148C3315.7 152.7 3413.3 119.3 3510.8 92.3C3608.3 65.3 3705.7 44.7 3803.2 35.8C3900.7 27 3998.3 30 4047.2 31.5L4096 33L4096 0L4047.2 0C3998.3 0 3900.7 0 3803.2 0C3705.7 0 3608.3 0 3510.8 0C3413.3 0 3315.7 0 3218.2 0C3120.7 0 3023.3 0 2925.8 0C2828.3 0 2730.7 0 2633.2 0C2535.7 0 2438.3 0 2340.8 0C2243.3 0 2145.7 0 2048 0C1950.3 0 1852.7 0 1755.2 0C1657.7 0 1560.3 0 1462.8 0C1365.3 0 1267.7 0 1170.2 0C1072.7 0 975.3 0 877.8 0C780.3 0 682.7 0 585.2 0C487.7 0 390.3 0 292.8 0C195.3 0 97.7 0 48.8 0L0 0Z" fill="#ff00e2"></path></svg>