<svg id="visual" viewBox="0 0 4096 600" width="4096" height="600" xmlns="http://www.w3.org/2000/svg" xmlns:xlink="http://www.w3.org/1999/xlink" version="1.1"><rect x="0" y="0" width="4096" height="600" fill="#000"></rect><path d="M0 385L48.8 383.5C97.7 382 195.3 379 292.8 392.7C390.3 406.3 487.7 436.7 585.2 411.2C682.7 385.7 780.3 304.3 877.8 260.5C975.3 216.7 1072.7 210.3 1170.2 215.2C1267.7 220 1365.3 236 1462.8 266.3C1560.3 296.7 1657.7 341.3 1755.2 345C1852.7 348.7 1950.3 311.3 2048 304.3C2145.7 297.3 2243.3 320.7 2340.8 343.8C2438.3 367 2535.7 390 2633.2 363.8C2730.7 337.7 2828.3 262.3 2925.8 225.3C3023.3 188.3 3120.7 189.7 3218.2 185.3C3315.7 181 3413.3 171 3510.8 208.3C3608.3 245.7 3705.7 330.3 3803.2 340C3900.7 349.7 3998.3 284.3 4047.2 251.7L4096 219L4096 0L4047.2 0C3998.3 0 3900.7 0 3803.2 0C3705.7 0 3608.3 0 3510.8 0C3413.3 0 3315.7 0 3218.2 0C3120.7 0 3023.3 0 2925.8 0C2828.3 0 2730.7 0 2633.2 0C2535.7 0 2438.3 0 2340.8 0C2243.3 0 2145.7 0 2048 0C1950.3 0 1852.7 0 1755.2 0C1657.7 0 1560.3 0 1462.8 0C1365.3 0 1267.7 0 1170.2 0C1072.7 0 975.3 0 877.8 0C780.3 0 682.7 0 585.2 0C487.7 0 390.3 0 292.8 0C195.3 0 97.7 0 48.8 0L0 0Z" fill="#00ffce"></path><path d="M0 325L48.8 326.3C97.7 327.7 195.3 330.3 292.8 300.3C390.3 270.3 487.7 207.7 585.2 170.8C682.7 134 780.3 123 877.8 152.8C975.3 182.7 1072.7 253.3 1170.2 251.2C1267.7 249 1365.3 174 1462.8 135.7C1560.3 97.3 1657.7 95.7 1755.2 113.3C1852.7 131 1950.3 168 2048 186.8C2145.7 205.7 2243.3 206.3 2340.8 224.2C2438.3 242 2535.7 277 2633.2 265C2730.7 253 2828.3 194 2925.8 191.7C3023.3 189.3 3120.7 243.7 3218.2 267.8C3315.7 292 3413.3 286 3510.8 256C3608.3 226 3705.7 172 3803.2 179.2C3900.7 186.3 3998.3 254.7 4047.2 288.8L4096 323L4096 0L4047.2 0C3998.3 0 3900.7 0 3803.2 0C3705.7 0 3608.3 0 3510.8 0C3413.3 0 3315.7 0 3218.2 0C3120.7 0 3023.3 0 2925.8 0C2828.3 0 2730.7 0 2633.2 0C2535.7 0 2438.3 0 2340.8 0C2243.3 0 2145.7 0 2048 0C1950.3 0 1852.7 0 1755.2 0C1657.7 0 1560.3 0 1462.8 0C1365.3 0 1267.7 0 1170.2 0C1072.7 0 975.3 0 877.8 0C780.3 0 682.7 0 585.2 0C487.7 0 390.3 0 292.8 0C195.3 0 97.7 0 48.8 0L0 0Z" fill="#00e9f8"></path><path d="M0 54L48.8 68.8C97.7 83.7 195.3 113.3 292.8 135.2C390.3 157 487.7 171 585.2 161.7C682.7 152.3 780.3 119.7 877.8 126C975.3 132.3 1072.7 177.7 1170.2 179.2C1267.7 180.7 1365.3 138.3 1462.8 116.2C1560.3 94 1657.7 92 1755.2 83C1852.7 74 1950.3 58 2048 80.5C2145.7 103 2243.3 164 2340.8 194.8C2438.3 225.7 2535.7 226.3 2633.2 201.3C2730.7 176.3 2828.3 125.7 2925.8 126C3023.3 126.3 3120.7 177.7 3218.2 191.3C3315.7 205 3413.3 181 3510.8 160.5C3608.3 140 3705.7 123 3803.2 111.3C3900.7 99.7 3998.3 93.3 4047.2 90.2L4096 87L4096 0L4047.2 0C3998.3 0 3900.7 0 3803.2 0C3705.7 0 3608.3 0 3510.8 0C3413.3 0 3315.7 0 3218.2 0C3120.7 0 3023.3 0 2925.8 0C2828.3 0 2730.7 0 2633.2 0C2535.7 0 2438.3 0 2340.8 0C2243.3 0 2145.7 0 2048 0C1950.3 0 1852.7 0 1755.2 0C1657.7 0 1560.3 0 1462.8 0C1365.3 0 1267.7 0 1170.2 0C1072.7 0 975.3 0 877.8 0C780.3 0 682.7 0 585.2 0C487.7 0 390.3 0 292.8 0C195.3 0 97.7 0 48.8 0L0 0Z" fill="#00ccff"></path><path d="M0 177L48.8 159C97.7 141 195.3 105 292.8 96.5C390.3 88 487.7 107 585.2 120.7C682.7 134.3 780.3 142.7 877.8 144C975.3 145.3 1072.7 139.7 1170.2 125C1267.7 110.3 1365.3 86.7 1462.8 74.3C1560.3 62 1657.7 61 1755.2 76C1852.7 91 1950.3 122 2048 143.2C2145.7 164.3 2243.3 175.7 2340.8 152C2438.3 128.3 2535.7 69.7 2633.2 44C2730.7 18.3 2828.3 25.7 2925.8 52.8C3023.3 80 3120.7 127 3218.2 135.5C3315.7 144 3413.3 114 3510.8 96.3C3608.3 78.7 3705.7 73.3 3803.2 87.2C3900.7 101 3998.3 134 4047.2 150.5L4096 167L4096 0L4047.2 0C3998.3 0 3900.7 0 3803.2 0C3705.7 0 3608.3 0 3510.8 0C3413.3 0 3315.7 0 3218.2 0C3120.7 0 3023.3 0 2925.8 0C2828.3 0 2730.7 0 2633.2 0C2535.7 0 2438.3 0 2340.8 0C2243.3 0 2145.7 0 2048 0C1950.3 0 1852.7 0 1755.2 0C1657.7 0 1560.3 0 1462.8 0C1365.3 0 1267.7 0 1170.2 0C1072.7 0 975.3 0 877.8 0C780.3 0 682.7 0 585.2 0C487.7 0 390.3 0 292.8 0C195.3 0 97.7 0 48.8 0L0 0Z" fill="#4facf7"></path></svg>