<?xml version="1.0" standalone="no"?>
<!DOCTYPE svg PUBLIC "-//W3C//DTD SVG 20010904//EN"
 "http://www.w3.org/TR/2001/REC-SVG-20010904/DTD/svg10.dtd">
<svg version="1.0" xmlns="http://www.w3.org/2000/svg"
 width="4096.000000pt" height="4096.000000pt" viewBox="0 0 4096.000000 4096.000000"
 preserveAspectRatio="xMidYMid meet">

<g transform="translate(0.000000,4096.000000) scale(0.100000,-0.100000)"
fill="#000000" stroke="none">
<path d="M15270 20530 l0 -15269 68 5 c473 37 790 88 1107 179 1123 322 1715
1033 1804 2164 15 188 15 25625 1 25807 -43 529 -198 964 -469 1319 -65 86
-231 256 -333 340 -376 315 -924 541 -1589 655 -164 28 -501 70 -561 70 l-28
0 0 -15270z"/>
<path d="M25490 29829 c-464 -47 -881 -138 -1231 -270 -124 -46 -352 -155
-458 -218 -269 -160 -531 -406 -704 -662 -215 -318 -352 -758 -386 -1241 -7
-97 -11 -1036 -11 -2760 0 -1652 -4 -2648 -10 -2708 -47 -444 -196 -831 -457
-1182 -120 -162 -258 -295 -513 -499 -169 -135 -795 -561 -1338 -909 l-302
-195 1885 -3 1885 -2 81 40 c105 53 278 156 409 243 320 214 614 501 822 802
237 344 418 819 482 1270 48 328 46 165 46 4363 l0 3942 -57 -1 c-32 -1 -96
-5 -143 -10z"/>
<path d="M20090 18617 c111 -88 259 -180 670 -417 731 -421 1085 -654 1288
-845 167 -157 361 -471 473 -762 55 -143 94 -281 123 -433 14 -69 28 -141 32
-160 4 -19 10 -1932 14 -4250 6 -3820 8 -4227 23 -4345 88 -702 332 -1186 787
-1564 435 -362 1009 -571 1830 -665 69 -8 178 -18 243 -22 l118 -6 -4 5418
c-3 4077 -7 5444 -15 5519 -61 510 -198 929 -434 1322 -197 329 -340 489 -728
815 -220 185 -357 272 -580 368 l-91 40 -1882 0 c-1481 -1 -1879 -3 -1867 -13z"/>
</g>
</svg>
